<mxfile host="app.diagrams.net" agent="Mozilla/5.0 (Windows NT 10.0; Win64; x64) AppleWebKit/537.36 (KHTML, like Gecko) Chrome/139.0.0.0 Safari/537.36" version="28.1.0">
  <diagram name="Cross-Partition Inference MVP" id="cross-partition-inference-mvp">
    <mxGraphModel dx="1154" dy="776" grid="1" gridSize="10" guides="1" tooltips="1" connect="1" arrows="1" fold="1" page="1" pageScale="1" pageWidth="1400" pageHeight="1000" math="0" shadow="0">
      <root>
        <mxCell id="0" />
        <mxCell id="1" parent="0" />
        <mxCell id="title" value="AWS Cross-Partition Inference - Over Internet" style="text;html=1;strokeColor=none;fillColor=none;align=center;verticalAlign=middle;whiteSpace=wrap;rounded=0;fontSize=24;fontStyle=1;" parent="1" vertex="1">
          <mxGeometry x="330" y="30" width="670" height="40" as="geometry" />
        </mxCell>
        <mxCell id="govcloud-cloud" value="AWS GovCloud Partition" style="points=[[0,0],[0.25,0],[0.5,0],[0.75,0],[1,0],[1,0.25],[1,0.5],[1,0.75],[1,1],[0.75,1],[0.5,1],[0.25,1],[0,1],[0,0.75],[0,0.5],[0,0.25]];outlineConnect=0;gradientColor=none;html=1;whiteSpace=wrap;fontSize=12;fontStyle=0;container=1;pointerEvents=0;collapsible=0;recursiveResize=0;shape=mxgraph.aws4.group;grIcon=mxgraph.aws4.group_aws_cloud_alt;strokeColor=#FF9900;fillColor=none;verticalAlign=top;align=left;spacingLeft=30;fontColor=#FF9900;dashed=0;" parent="1" vertex="1">
          <mxGeometry x="180" y="80" width="490" height="640" as="geometry" />
        </mxCell>
        <mxCell id="govcloud-region" value="US Gov West 1 (Oregon)" style="points=[[0,0],[0.25,0],[0.5,0],[0.75,0],[1,0],[1,0.25],[1,0.5],[1,0.75],[1,1],[0.75,1],[0.5,1],[0.25,1],[0,1],[0,0.75],[0,0.5],[0,0.25]];outlineConnect=0;gradientColor=none;html=1;whiteSpace=wrap;fontSize=12;fontStyle=0;container=1;pointerEvents=0;collapsible=0;recursiveResize=0;shape=mxgraph.aws4.group;grIcon=mxgraph.aws4.group_region;strokeColor=#FF9900;fillColor=none;verticalAlign=top;align=left;spacingLeft=30;fontColor=#FF9900;dashed=0;" parent="govcloud-cloud" vertex="1">
          <mxGeometry x="40" y="40" width="410" height="560" as="geometry" />
        </mxCell>
        <mxCell id="apigateway" value="" style="sketch=0;points=[[0,0,0],[0.25,0,0],[0.5,0,0],[0.75,0,0],[1,0,0],[0,1,0],[0.25,1,0],[0.5,1,0],[0.75,1,0],[1,1,0],[0,0.25,0],[0,0.5,0],[0,0.75,0],[1,0.25,0],[1,0.5,0],[1,0.75,0]];outlineConnect=0;fontColor=#232F3E;gradientColor=#FF4F8B;gradientDirection=north;fillColor=#BC1356;strokeColor=#ffffff;dashed=0;verticalLabelPosition=bottom;verticalAlign=top;align=center;html=1;fontSize=12;fontStyle=0;aspect=fixed;shape=mxgraph.aws4.resourceIcon;resIcon=mxgraph.aws4.api_gateway;" parent="govcloud-region" vertex="1">
          <mxGeometry x="80" y="140" width="78" height="78" as="geometry" />
        </mxCell>
        <mxCell id="apigateway-label" value="API Gateway&#xa;Cross-Partition API&#xa;(/bedrock/*)" style="text;html=1;strokeColor=none;fillColor=none;align=center;verticalAlign=middle;whiteSpace=wrap;rounded=0;" parent="govcloud-region" vertex="1">
          <mxGeometry x="53" y="223" width="132" height="45" as="geometry" />
        </mxCell>
        <mxCell id="lambda" value="" style="sketch=0;points=[[0,0,0],[0.25,0,0],[0.5,0,0],[0.75,0,0],[1,0,0],[0,1,0],[0.25,1,0],[0.5,1,0],[0.75,1,0],[1,1,0],[0,0.25,0],[0,0.5,0],[0,0.75,0],[1,0.25,0],[1,0.5,0],[1,0.75,0]];outlineConnect=0;fontColor=#232F3E;gradientColor=#F78E04;gradientDirection=north;fillColor=#D05C17;strokeColor=#ffffff;dashed=0;verticalLabelPosition=bottom;verticalAlign=top;align=center;html=1;fontSize=12;fontStyle=0;aspect=fixed;shape=mxgraph.aws4.resourceIcon;resIcon=mxgraph.aws4.lambda;" parent="govcloud-region" vertex="1">
          <mxGeometry x="80" y="300" width="78" height="78" as="geometry" />
        </mxCell>
        <mxCell id="lambda-label" value="Lambda Function&#xa;Cross-Partition Proxy&#xa;(Python/Node.js)" style="text;html=1;strokeColor=none;fillColor=none;align=center;verticalAlign=middle;whiteSpace=wrap;rounded=0;" parent="govcloud-region" vertex="1">
          <mxGeometry x="54.5" y="388" width="131" height="45" as="geometry" />
        </mxCell>
        <mxCell id="secrets" value="" style="sketch=0;points=[[0,0,0],[0.25,0,0],[0.5,0,0],[0.75,0,0],[1,0,0],[0,1,0],[0.25,1,0],[0.5,1,0],[0.75,1,0],[1,1,0],[0,0.25,0],[0,0.5,0],[0,0.75,0],[1,0.25,0],[1,0.5,0],[1,0.75,0]];outlineConnect=0;fontColor=#232F3E;gradientColor=#F34482;gradientDirection=north;fillColor=#BC1356;strokeColor=#ffffff;dashed=0;verticalLabelPosition=bottom;verticalAlign=top;align=center;html=1;fontSize=12;fontStyle=0;aspect=fixed;shape=mxgraph.aws4.resourceIcon;resIcon=mxgraph.aws4.secrets_manager;" parent="govcloud-region" vertex="1">
          <mxGeometry x="280" y="300" width="78" height="78" as="geometry" />
        </mxCell>
        <mxCell id="secrets-label" value="Secrets Manager&#xa;Commercial AWS&#xa;Credentials" style="text;html=1;strokeColor=none;fillColor=none;align=center;verticalAlign=middle;whiteSpace=wrap;rounded=0;" parent="govcloud-region" vertex="1">
          <mxGeometry x="254.5" y="388" width="131" height="45" as="geometry" />
        </mxCell>
        <mxCell id="cloudwatch" value="" style="sketch=0;points=[[0,0,0],[0.25,0,0],[0.5,0,0],[0.75,0,0],[1,0,0],[0,1,0],[0.25,1,0],[0.5,1,0],[0.75,1,0],[1,1,0],[0,0.25,0],[0,0.5,0],[0,0.75,0],[1,0.25,0],[1,0.5,0],[1,0.75,0]];outlineConnect=0;fontColor=#232F3E;gradientColor=#F34482;gradientDirection=north;fillColor=#BC1356;strokeColor=#ffffff;dashed=0;verticalLabelPosition=bottom;verticalAlign=top;align=center;html=1;fontSize=12;fontStyle=0;aspect=fixed;shape=mxgraph.aws4.resourceIcon;resIcon=mxgraph.aws4.cloudwatch;" parent="govcloud-region" vertex="1">
          <mxGeometry x="280" y="140" width="78" height="78" as="geometry" />
        </mxCell>
        <mxCell id="cloudwatch-label" value="CloudWatch&#xa;Logs &amp; Monitoring" style="text;html=1;strokeColor=none;fillColor=none;align=center;verticalAlign=middle;whiteSpace=wrap;rounded=0;" parent="govcloud-region" vertex="1">
          <mxGeometry x="263" y="223" width="119" height="30" as="geometry" />
        </mxCell>
        <mxCell id="iam" value="" style="sketch=0;points=[[0,0,0],[0.25,0,0],[0.5,0,0],[0.75,0,0],[1,0,0],[0,1,0],[0.25,1,0],[0.5,1,0],[0.75,1,0],[1,1,0],[0,0.25,0],[0,0.5,0],[0,0.75,0],[1,0.25,0],[1,0.5,0],[1,0.75,0]];outlineConnect=0;fontColor=#232F3E;fillColor=#DD344C;strokeColor=#ffffff;dashed=0;verticalLabelPosition=bottom;verticalAlign=top;align=center;html=1;fontSize=12;fontStyle=0;aspect=fixed;shape=mxgraph.aws4.resourceIcon;resIcon=mxgraph.aws4.identity_and_access_management;" parent="govcloud-region" vertex="1">
          <mxGeometry x="284.5" y="10" width="78" height="78" as="geometry" />
        </mxCell>
        <mxCell id="iam-label" value="IAM&#xa;Roles &amp; Policies" style="text;html=1;strokeColor=none;fillColor=none;align=center;verticalAlign=middle;whiteSpace=wrap;rounded=0;" parent="govcloud-region" vertex="1">
          <mxGeometry x="268.5" y="100" width="108" height="30" as="geometry" />
        </mxCell>
        <mxCell id="commercial-cloud" value="AWS Commercial Partition" style="points=[[0,0],[0.25,0],[0.5,0],[0.75,0],[1,0],[1,0.25],[1,0.5],[1,0.75],[1,1],[0.75,1],[0.5,1],[0.25,1],[0,1],[0,0.75],[0,0.5],[0,0.25]];outlineConnect=0;gradientColor=none;html=1;whiteSpace=wrap;fontSize=12;fontStyle=0;container=1;pointerEvents=0;collapsible=0;recursiveResize=0;shape=mxgraph.aws4.group;grIcon=mxgraph.aws4.group_aws_cloud_alt;strokeColor=#147EBA;fillColor=none;verticalAlign=top;align=left;spacingLeft=30;fontColor=#147EBA;dashed=0;" parent="1" vertex="1">
          <mxGeometry x="720" y="80" width="390" height="440" as="geometry" />
        </mxCell>
        <mxCell id="commercial-region" value="US East 1 (N. Virginia)" style="points=[[0,0],[0.25,0],[0.5,0],[0.75,0],[1,0],[1,0.25],[1,0.5],[1,0.75],[1,1],[0.75,1],[0.5,1],[0.25,1],[0,1],[0,0.75],[0,0.5],[0,0.25]];outlineConnect=0;gradientColor=none;html=1;whiteSpace=wrap;fontSize=12;fontStyle=0;container=1;pointerEvents=0;collapsible=0;recursiveResize=0;shape=mxgraph.aws4.group;grIcon=mxgraph.aws4.group_region;strokeColor=#147EBA;fillColor=none;verticalAlign=top;align=left;spacingLeft=30;fontColor=#147EBA;dashed=0;" parent="commercial-cloud" vertex="1">
          <mxGeometry x="40" y="40" width="310" height="360" as="geometry" />
        </mxCell>
        <mxCell id="bedrock" value="" style="sketch=0;points=[[0,0,0],[0.25,0,0],[0.5,0,0],[0.75,0,0],[1,0,0],[0,1,0],[0.25,1,0],[0.5,1,0],[0.75,1,0],[1,1,0],[0,0.25,0],[0,0.5,0],[0,0.75,0],[1,0.25,0],[1,0.5,0],[1,0.75,0]];outlineConnect=0;fontColor=#232F3E;gradientColor=#4AB29A;gradientDirection=north;fillColor=#116D5B;strokeColor=#ffffff;dashed=0;verticalLabelPosition=bottom;verticalAlign=top;align=center;html=1;fontSize=12;fontStyle=0;aspect=fixed;shape=mxgraph.aws4.resourceIcon;resIcon=mxgraph.aws4.bedrock;" parent="commercial-region" vertex="1">
          <mxGeometry x="80" y="80" width="78" height="78" as="geometry" />
        </mxCell>
        <mxCell id="bedrock-label" value="Amazon Bedrock&#xa;AI Model Inference&#xa;(Claude, GPT-4, etc.)" style="text;html=1;strokeColor=none;fillColor=none;align=center;verticalAlign=middle;whiteSpace=wrap;rounded=0;" parent="commercial-region" vertex="1">
          <mxGeometry x="50" y="165" width="138" height="45" as="geometry" />
        </mxCell>
        <mxCell id="JtiykRLtyy1AguR7z03z-1" value="" style="sketch=0;points=[[0,0,0],[0.25,0,0],[0.5,0,0],[0.75,0,0],[1,0,0],[0,1,0],[0.25,1,0],[0.5,1,0],[0.75,1,0],[1,1,0],[0,0.25,0],[0,0.5,0],[0,0.75,0],[1,0.25,0],[1,0.5,0],[1,0.75,0]];outlineConnect=0;fontColor=#232F3E;fillColor=#DD344C;strokeColor=#ffffff;dashed=0;verticalLabelPosition=bottom;verticalAlign=top;align=center;html=1;fontSize=12;fontStyle=0;aspect=fixed;shape=mxgraph.aws4.resourceIcon;resIcon=mxgraph.aws4.identity_and_access_management;" vertex="1" parent="commercial-region">
          <mxGeometry x="204" y="80" width="78" height="78" as="geometry" />
        </mxCell>
        <mxCell id="JtiykRLtyy1AguR7z03z-2" value="IAM&#xa;Roles &amp; Policies" style="text;html=1;strokeColor=none;fillColor=none;align=center;verticalAlign=middle;whiteSpace=wrap;rounded=0;" vertex="1" parent="commercial-region">
          <mxGeometry x="188" y="170" width="108" height="30" as="geometry" />
        </mxCell>
        <mxCell id="conn5-label" value="HTTPS over Internet" style="text;html=1;strokeColor=none;fillColor=none;align=center;verticalAlign=middle;whiteSpace=wrap;rounded=0;fontSize=10;fontColor=#FF0000;" parent="commercial-cloud" vertex="1">
          <mxGeometry x="-80" y="243" width="120" height="20" as="geometry" />
        </mxCell>
        <mxCell id="clients" value="" style="sketch=0;outlineConnect=0;fontColor=#232F3E;gradientColor=none;fillColor=#232F3D;strokeColor=none;dashed=0;verticalLabelPosition=bottom;verticalAlign=top;align=center;html=1;fontSize=12;fontStyle=0;aspect=fixed;pointerEvents=1;shape=mxgraph.aws4.users;" parent="1" vertex="1">
          <mxGeometry x="71" y="120" width="78" height="78" as="geometry" />
        </mxCell>
        <mxCell id="clients-label" value="GovCloud Applications&#xa;(Using Bedrock SDK)" style="text;html=1;strokeColor=none;fillColor=none;align=center;verticalAlign=middle;whiteSpace=wrap;rounded=0;" parent="1" vertex="1">
          <mxGeometry x="41" y="210" width="138" height="30" as="geometry" />
        </mxCell>
        <mxCell id="conn1" value="" style="endArrow=classic;html=1;rounded=0;exitX=1;exitY=0.5;exitDx=0;exitDy=0;entryX=0;entryY=0.5;entryDx=0;entryDy=0;exitPerimeter=0;entryPerimeter=0;" parent="1" source="clients" target="apigateway" edge="1">
          <mxGeometry width="50" height="50" relative="1" as="geometry">
            <mxPoint x="400" y="400" as="sourcePoint" />
            <mxPoint x="450" y="350" as="targetPoint" />
          </mxGeometry>
        </mxCell>
        <mxCell id="conn2" value="" style="endArrow=classic;html=1;rounded=0;exitX=0.5;exitY=1;exitDx=0;exitDy=0;entryX=0.5;entryY=0;entryDx=0;entryDy=0;exitPerimeter=0;entryPerimeter=0;" parent="1" source="apigateway" target="lambda" edge="1">
          <mxGeometry width="50" height="50" relative="1" as="geometry">
            <mxPoint x="400" y="400" as="sourcePoint" />
            <mxPoint x="450" y="350" as="targetPoint" />
          </mxGeometry>
        </mxCell>
        <mxCell id="conn3" value="" style="endArrow=classic;html=1;rounded=0;exitX=1;exitY=0.5;exitDx=0;exitDy=0;entryX=0;entryY=0.5;entryDx=0;entryDy=0;exitPerimeter=0;entryPerimeter=0;" parent="1" source="lambda" target="secrets" edge="1">
          <mxGeometry width="50" height="50" relative="1" as="geometry">
            <mxPoint x="400" y="400" as="sourcePoint" />
            <mxPoint x="450" y="350" as="targetPoint" />
          </mxGeometry>
        </mxCell>
        <mxCell id="conn4" value="" style="endArrow=classic;html=1;rounded=0;exitX=1;exitY=0;exitDx=0;exitDy=0;entryX=0;entryY=1;entryDx=0;entryDy=0;exitPerimeter=0;entryPerimeter=0;" parent="1" source="lambda" target="cloudwatch" edge="1">
          <mxGeometry width="50" height="50" relative="1" as="geometry">
            <mxPoint x="400" y="400" as="sourcePoint" />
            <mxPoint x="450" y="350" as="targetPoint" />
          </mxGeometry>
        </mxCell>
        <mxCell id="conn5" value="" style="endArrow=classic;html=1;rounded=0;strokeColor=#FF0000;exitX=1;exitY=0.5;exitDx=0;exitDy=0;entryX=0;entryY=0.5;entryDx=0;entryDy=0;exitPerimeter=0;entryPerimeter=0;" parent="1" source="lambda" target="bedrock" edge="1">
          <mxGeometry width="50" height="50" relative="1" as="geometry">
            <mxPoint x="400" y="400" as="sourcePoint" />
            <mxPoint x="450" y="350" as="targetPoint" />
          </mxGeometry>
        </mxCell>
        <mxCell id="legend-bg" value="" style="rounded=1;whiteSpace=wrap;html=1;fillColor=#f5f5f5;strokeColor=#666666;fontColor=#333333;" parent="1" vertex="1">
          <mxGeometry x="845" y="550" width="200" height="520" as="geometry" />
        </mxCell>
        <mxCell id="legend-title" value="MVP Architecture" style="text;html=1;strokeColor=none;fillColor=none;align=center;verticalAlign=middle;whiteSpace=wrap;rounded=0;fontSize=14;fontStyle=1;" parent="1" vertex="1">
          <mxGeometry x="860" y="560" width="150" height="20" as="geometry" />
        </mxCell>
        <mxCell id="legend-text" value="GovCloud Services:&#xa;• API Gateway (REST API)&#xa;• Lambda (Cross-Partition Proxy)&#xa;• Secrets Manager (Credentials)&#xa;• CloudWatch (Logs &amp; Monitoring)&#xa;• IAM (Roles &amp; Policies)&#xa;&#xa;Commercial Services:&#xa;• Amazon Bedrock (AI Models)&#xa;  - Claude 3.5 Sonnet&#xa;  - GPT-4&#xa;  - Nova Models&#xa;&#xa;MVP Features:&#xa;• Simple Lambda proxy&#xa;• Internet-only connectivity&#xa;• Basic credential management&#xa;• Standard CloudWatch logging&#xa;• IAM-based access control&#xa;&#xa;Data Flow:&#xa;1. Apps → API Gateway&#xa;2. API Gateway → Lambda&#xa;3. Lambda → Secrets Manager&#xa;4. Lambda → Commercial Bedrock&#xa;5. Response back through chain&#xa;&#xa;Security:&#xa;• HTTPS/TLS encryption&#xa;• AWS IAM authentication&#xa;• Secrets Manager for creds&#xa;• CloudWatch audit logging&#xa;&#xa;Benefits:&#xa;• Simple to deploy&#xa;• Cost-effective&#xa;• Serverless architecture&#xa;• Auto-scaling&#xa;• Pay-per-use model" style="text;html=1;strokeColor=none;fillColor=none;align=left;verticalAlign=top;whiteSpace=wrap;rounded=0;fontSize=10;" parent="1" vertex="1">
          <mxGeometry x="860" y="580" width="180" height="350" as="geometry" />
        </mxCell>
      </root>
    </mxGraphModel>
  </diagram>
</mxfile>
